{
    "asset" : {
        "generator" : "Khronos glTF Blender I/O v0.9.36",
        "version" : "2.0"
    },
    "scene" : 0,
    "scenes" : [
        {
            "name" : "Scene",
            "nodes" : [
                0,
                1,
                2,
                3,
                4,
                5,
                6,
                7,
                8
            ]
        }
    ],
    "nodes" : [
        {
            "mesh" : 0,
            "name" : "Cube"
        },
        {
            "name" : "Light",
            "rotation" : [
                0.16907575726509094,
                0.7558803558349609,
                -0.27217137813568115,
                0.570947527885437
            ],
            "translation" : [
                4.076245307922363,
                12.374425888061523,
                -1.0054539442062378
            ]
        },
        {
            "name" : "Camera",
            "rotation" : [
                0.483536034822464,
                0.33687159419059753,
                -0.20870360732078552,
                0.7804827094078064
            ],
            "translation" : [
                7.358891487121582,
                4.958309173583984,
                6.925790786743164
            ]
        },
        {
            "name" : "Empty",
            "translation" : [
                11.749907493591309,
                7.801032543182373,
                7.866236209869385
            ]
        },
        {
            "mesh" : 1,
            "name" : "Cylinder"
        },
        {
            "mesh" : 2,
            "name" : "Cylinder.001"
        },
        {
            "mesh" : 3,
            "name" : "Plane"
        },
        {
            "name" : "Light.001",
            "rotation" : [
                0.16907575726509094,
                0.7558803558349609,
                -0.27217137813568115,
                0.570947527885437
            ],
            "translation" : [
                4.076245307922363,
                15.145500183105469,
                19.629867553710938
            ]
        },
        {
            "mesh" : 4,
            "name" : "Cylinder.002"
        }
    ],
    "materials" : [
        {
            "doubleSided" : true,
            "name" : "Material",
            "pbrMetallicRoughness" : {
                "baseColorTexture" : {
                    "index" : 0,
                    "texCoord" : 0
                },
                "metallicFactor" : 0,
                "roughnessFactor" : 0.4000000059604645
            }
        },
        {
            "doubleSided" : true,
            "name" : "Material.001",
            "pbrMetallicRoughness" : {
                "baseColorFactor" : [
                    0.1769997626543045,
                    0.1769997626543045,
                    0.1769997626543045,
                    1
                ],
                "metallicFactor" : 0,
                "roughnessFactor" : 0.5
            }
        },
        {
            "doubleSided" : true,
            "name" : "Material.002",
            "pbrMetallicRoughness" : {
                "baseColorFactor" : [
                    0,
                    0,
                    0,
                    1
                ],
                "metallicFactor" : 0,
                "roughnessFactor" : 1
            }
        },
        {
            "doubleSided" : true,
            "name" : "Material.003",
            "pbrMetallicRoughness" : {
                "baseColorFactor" : [
                    0.40426576137542725,
                    0.40426576137542725,
                    0.40426576137542725,
                    1
                ],
                "metallicFactor" : 0.581818163394928,
                "roughnessFactor" : 0.23636364936828613
            }
        },
        {
            "doubleSided" : true,
            "name" : "Material.004",
            "pbrMetallicRoughness" : {
                "baseColorTexture" : {
                    "index" : 1,
                    "texCoord" : 0
                },
                "metallicFactor" : 0,
                "roughnessFactor" : 0.5
            }
        },
        {
            "doubleSided" : true,
            "name" : "Material.005",
            "pbrMetallicRoughness" : {
                "baseColorTexture" : {
                    "index" : 2,
                    "texCoord" : 0
                },
                "metallicFactor" : 0,
                "roughnessFactor" : 0.5
            }
        }
    ],
    "meshes" : [
        {
            "name" : "Cube",
            "primitives" : [
                {
                    "attributes" : {
                        "POSITION" : 0,
                        "NORMAL" : 1,
                        "TEXCOORD_0" : 2
                    },
                    "indices" : 3,
                    "material" : 0
                }
            ]
        },
        {
            "name" : "Cylinder",
            "primitives" : [
                {
                    "attributes" : {
                        "POSITION" : 4,
                        "NORMAL" : 5,
                        "TEXCOORD_0" : 6
                    },
                    "indices" : 7,
                    "material" : 1
                },
                {
                    "attributes" : {
                        "POSITION" : 8,
                        "NORMAL" : 9,
                        "TEXCOORD_0" : 10
                    },
                    "indices" : 11,
                    "material" : 2
                },
                {
                    "attributes" : {
                        "POSITION" : 12,
                        "NORMAL" : 13,
                        "TEXCOORD_0" : 14
                    },
                    "indices" : 15,
                    "material" : 3
                }
            ]
        },
        {
            "name" : "Cylinder.001",
            "primitives" : [
                {
                    "attributes" : {
                        "POSITION" : 16,
                        "NORMAL" : 17,
                        "TEXCOORD_0" : 18
                    },
                    "indices" : 19,
                    "material" : 1
                },
                {
                    "attributes" : {
                        "POSITION" : 20,
                        "NORMAL" : 21,
                        "TEXCOORD_0" : 22
                    },
                    "indices" : 23,
                    "material" : 2
                },
                {
                    "attributes" : {
                        "POSITION" : 24,
                        "NORMAL" : 25,
                        "TEXCOORD_0" : 26
                    },
                    "indices" : 15,
                    "material" : 3
                }
            ]
        },
        {
            "name" : "Plane",
            "primitives" : [
                {
                    "attributes" : {
                        "POSITION" : 27,
                        "NORMAL" : 28,
                        "TEXCOORD_0" : 29
                    },
                    "indices" : 30,
                    "material" : 4
                }
            ]
        },
        {
            "name" : "Cylinder.002",
            "primitives" : [
                {
                    "attributes" : {
                        "POSITION" : 31,
                        "NORMAL" : 32,
                        "TEXCOORD_0" : 33
                    },
                    "indices" : 34,
                    "material" : 5
                }
            ]
        }
    ],
    "textures" : [
        {
            "source" : 0
        },
        {
            "source" : 1
        },
        {
            "source" : 1
        }
    ],
    "images" : [
        {
            "bufferView" : 4,
            "mimeType" : "image/png",
            "name" : "basic_tank_texture_main"
        },
        {
            "bufferView" : 32,
            "mimeType" : "image/png",
            "name" : "basic_tank_tower"
        }
    ],
    "accessors" : [
        {
            "bufferView" : 0,
            "componentType" : 5126,
            "count" : 1080,
            "max" : [
                2.0630383491516113,
                1.8768525123596191,
                4.204806327819824
            ],
            "min" : [
                -2.0630383491516113,
                0,
                -3.271782875061035
            ],
            "type" : "VEC3"
        },
        {
            "bufferView" : 1,
            "componentType" : 5126,
            "count" : 1080,
            "type" : "VEC3"
        },
        {
            "bufferView" : 2,
            "componentType" : 5126,
            "count" : 1080,
            "type" : "VEC2"
        },
        {
            "bufferView" : 3,
            "componentType" : 5123,
            "count" : 1887,
            "type" : "SCALAR"
        },
        {
            "bufferView" : 5,
            "componentType" : 5126,
            "count" : 652,
            "max" : [
                2.3665223121643066,
                0.9846839308738708,
                -0.3934178650379181
            ],
            "min" : [
                -2.3143718242645264,
                -0.4058222770690918,
                -1.797544240951538
            ],
            "type" : "VEC3"
        },
        {
            "bufferView" : 6,
            "componentType" : 5126,
            "count" : 652,
            "type" : "VEC3"
        },
        {
            "bufferView" : 7,
            "componentType" : 5126,
            "count" : 652,
            "type" : "VEC2"
        },
        {
            "bufferView" : 8,
            "componentType" : 5123,
            "count" : 1194,
            "type" : "SCALAR"
        },
        {
            "bufferView" : 9,
            "componentType" : 5126,
            "count" : 2216,
            "max" : [
                2.377052068710327,
                1.0413743257522583,
                -0.3367273509502411
            ],
            "min" : [
                -2.3249013423919678,
                -0.46251267194747925,
                -1.840613842010498
            ],
            "type" : "VEC3"
        },
        {
            "bufferView" : 10,
            "componentType" : 5126,
            "count" : 2216,
            "type" : "VEC3"
        },
        {
            "bufferView" : 11,
            "componentType" : 5126,
            "count" : 2216,
            "type" : "VEC2"
        },
        {
            "bufferView" : 12,
            "componentType" : 5123,
            "count" : 3576,
            "type" : "SCALAR"
        },
        {
            "bufferView" : 13,
            "componentType" : 5126,
            "count" : 262,
            "max" : [
                2.369016647338867,
                0.8968339562416077,
                -0.48126769065856934
            ],
            "min" : [
                -2.316865921020508,
                -0.19431979954242706,
                -1.5724210739135742
            ],
            "type" : "VEC3"
        },
        {
            "bufferView" : 14,
            "componentType" : 5126,
            "count" : 262,
            "type" : "VEC3"
        },
        {
            "bufferView" : 15,
            "componentType" : 5126,
            "count" : 262,
            "type" : "VEC2"
        },
        {
            "bufferView" : 16,
            "componentType" : 5123,
            "count" : 402,
            "type" : "SCALAR"
        },
        {
            "bufferView" : 17,
            "componentType" : 5126,
            "count" : 654,
            "max" : [
                2.3665223121643066,
                0.9846839308738708,
                2.600112199783325
            ],
            "min" : [
                -2.3143718242645264,
                -0.4058222770690918,
                1.1959857940673828
            ],
            "type" : "VEC3"
        },
        {
            "bufferView" : 18,
            "componentType" : 5126,
            "count" : 654,
            "type" : "VEC3"
        },
        {
            "bufferView" : 19,
            "componentType" : 5126,
            "count" : 654,
            "type" : "VEC2"
        },
        {
            "bufferView" : 20,
            "componentType" : 5123,
            "count" : 1194,
            "type" : "SCALAR"
        },
        {
            "bufferView" : 21,
            "componentType" : 5126,
            "count" : 2216,
            "max" : [
                2.377052068710327,
                1.0413743257522583,
                2.6568026542663574
            ],
            "min" : [
                -2.3249013423919678,
                -0.46251267194747925,
                1.1529161930084229
            ],
            "type" : "VEC3"
        },
        {
            "bufferView" : 22,
            "componentType" : 5126,
            "count" : 2216,
            "type" : "VEC3"
        },
        {
            "bufferView" : 23,
            "componentType" : 5126,
            "count" : 2216,
            "type" : "VEC2"
        },
        {
            "bufferView" : 24,
            "componentType" : 5123,
            "count" : 3576,
            "type" : "SCALAR"
        },
        {
            "bufferView" : 25,
            "componentType" : 5126,
            "count" : 262,
            "max" : [
                2.369016647338867,
                0.8968339562416077,
                2.5122623443603516
            ],
            "min" : [
                -2.316865921020508,
                -0.19431979954242706,
                1.4211089611053467
            ],
            "type" : "VEC3"
        },
        {
            "bufferView" : 26,
            "componentType" : 5126,
            "count" : 262,
            "type" : "VEC3"
        },
        {
            "bufferView" : 27,
            "componentType" : 5126,
            "count" : 262,
            "type" : "VEC2"
        },
        {
            "bufferView" : 28,
            "componentType" : 5126,
            "count" : 878,
            "max" : [
                1.0825996398925781,
                3.0798730850219727,
                1.9763191938400269
            ],
            "min" : [
                -1.0825996398925781,
                1.9098241329193115,
                -0.8568282723426819
            ],
            "type" : "VEC3"
        },
        {
            "bufferView" : 29,
            "componentType" : 5126,
            "count" : 878,
            "type" : "VEC3"
        },
        {
            "bufferView" : 30,
            "componentType" : 5126,
            "count" : 878,
            "type" : "VEC2"
        },
        {
            "bufferView" : 31,
            "componentType" : 5123,
            "count" : 1401,
            "type" : "SCALAR"
        },
        {
            "bufferView" : 33,
            "componentType" : 5126,
            "count" : 1344,
            "max" : [
                0.2218277007341385,
                2.928523302078247,
                -0.17138978838920593
            ],
            "min" : [
                -0.22182761132717133,
                2.3797781467437744,
                -4.176074981689453
            ],
            "type" : "VEC3"
        },
        {
            "bufferView" : 34,
            "componentType" : 5126,
            "count" : 1344,
            "type" : "VEC3"
        },
        {
            "bufferView" : 35,
            "componentType" : 5126,
            "count" : 1344,
            "type" : "VEC2"
        },
        {
            "bufferView" : 36,
            "componentType" : 5123,
            "count" : 2100,
            "type" : "SCALAR"
        }
    ],
    "bufferViews" : [
        {
            "buffer" : 0,
            "byteLength" : 12960,
            "byteOffset" : 0
        },
        {
            "buffer" : 0,
            "byteLength" : 12960,
            "byteOffset" : 12960
        },
        {
            "buffer" : 0,
            "byteLength" : 8640,
            "byteOffset" : 25920
        },
        {
            "buffer" : 0,
            "byteLength" : 3774,
            "byteOffset" : 34560
        },
        {
            "buffer" : 0,
            "byteLength" : 803235,
            "byteOffset" : 38336
        },
        {
            "buffer" : 0,
            "byteLength" : 7824,
            "byteOffset" : 841572
        },
        {
            "buffer" : 0,
            "byteLength" : 7824,
            "byteOffset" : 849396
        },
        {
            "buffer" : 0,
            "byteLength" : 5216,
            "byteOffset" : 857220
        },
        {
            "buffer" : 0,
            "byteLength" : 2388,
            "byteOffset" : 862436
        },
        {
            "buffer" : 0,
            "byteLength" : 26592,
            "byteOffset" : 864824
        },
        {
            "buffer" : 0,
            "byteLength" : 26592,
            "byteOffset" : 891416
        },
        {
            "buffer" : 0,
            "byteLength" : 17728,
            "byteOffset" : 918008
        },
        {
            "buffer" : 0,
            "byteLength" : 7152,
            "byteOffset" : 935736
        },
        {
            "buffer" : 0,
            "byteLength" : 3144,
            "byteOffset" : 942888
        },
        {
            "buffer" : 0,
            "byteLength" : 3144,
            "byteOffset" : 946032
        },
        {
            "buffer" : 0,
            "byteLength" : 2096,
            "byteOffset" : 949176
        },
        {
            "buffer" : 0,
            "byteLength" : 804,
            "byteOffset" : 951272
        },
        {
            "buffer" : 0,
            "byteLength" : 7848,
            "byteOffset" : 952076
        },
        {
            "buffer" : 0,
            "byteLength" : 7848,
            "byteOffset" : 959924
        },
        {
            "buffer" : 0,
            "byteLength" : 5232,
            "byteOffset" : 967772
        },
        {
            "buffer" : 0,
            "byteLength" : 2388,
            "byteOffset" : 973004
        },
        {
            "buffer" : 0,
            "byteLength" : 26592,
            "byteOffset" : 975392
        },
        {
            "buffer" : 0,
            "byteLength" : 26592,
            "byteOffset" : 1001984
        },
        {
            "buffer" : 0,
            "byteLength" : 17728,
            "byteOffset" : 1028576
        },
        {
            "buffer" : 0,
            "byteLength" : 7152,
            "byteOffset" : 1046304
        },
        {
            "buffer" : 0,
            "byteLength" : 3144,
            "byteOffset" : 1053456
        },
        {
            "buffer" : 0,
            "byteLength" : 3144,
            "byteOffset" : 1056600
        },
        {
            "buffer" : 0,
            "byteLength" : 2096,
            "byteOffset" : 1059744
        },
        {
            "buffer" : 0,
            "byteLength" : 10536,
            "byteOffset" : 1061840
        },
        {
            "buffer" : 0,
            "byteLength" : 10536,
            "byteOffset" : 1072376
        },
        {
            "buffer" : 0,
            "byteLength" : 7024,
            "byteOffset" : 1082912
        },
        {
            "buffer" : 0,
            "byteLength" : 2802,
            "byteOffset" : 1089936
        },
        {
            "buffer" : 0,
            "byteLength" : 338200,
            "byteOffset" : 1092740
        },
        {
            "buffer" : 0,
            "byteLength" : 16128,
            "byteOffset" : 1430940
        },
        {
            "buffer" : 0,
            "byteLength" : 16128,
            "byteOffset" : 1447068
        },
        {
            "buffer" : 0,
            "byteLength" : 10752,
            "byteOffset" : 1463196
        },
        {
            "buffer" : 0,
            "byteLength" : 4200,
            "byteOffset" : 1473948
        }
    ],
    "buffers" : [
        {
            "byteLength" : 1478148,
            "uri" : "data:application/octet-stream;base64,"
        }
    ]
}
